<?xml version="1.0" standalone="no"?>
<!DOCTYPE svg PUBLIC "-//W3C//DTD SVG 20010904//EN"
 "http://www.w3.org/TR/2001/REC-SVG-20010904/DTD/svg10.dtd">
<svg version="1.0" xmlns="http://www.w3.org/2000/svg"
 width="256.000000pt" height="256.000000pt" viewBox="0 0 256.000000 256.000000"
 preserveAspectRatio="xMidYMid meet">
<metadata>
Created by potrace 1.14, written by Peter Selinger 2001-2017
</metadata>
<g transform="translate(0.000000,256.000000) scale(0.100000,-0.100000)"
fill="#000000" stroke="none">
<path d="M670 2490 c0 -5 23 -10 50 -10 28 0 50 5 50 10 0 6 -22 10 -50 10
-27 0 -50 -4 -50 -10z"/>
<path d="M550 2470 c0 -5 9 -10 20 -10 11 0 20 5 20 10 0 6 -9 10 -20 10 -11
0 -20 -4 -20 -10z"/>
<path d="M610 2470 c0 -5 5 -10 11 -10 5 0 7 5 4 10 -3 6 -8 10 -11 10 -2 0
-4 -4 -4 -10z"/>
<path d="M850 2470 c0 -5 5 -10 10 -10 6 0 10 5 10 10 0 6 -4 10 -10 10 -5 0
-10 -4 -10 -10z"/>
<path d="M436 2441 c-17 -19 -17 -21 0 -43 35 -47 58 -57 135 -59 41 -1 76 -5
79 -10 3 -4 19 -9 35 -11 17 -2 46 -11 65 -20 19 -9 51 -21 70 -28 19 -7 44
-21 55 -30 11 -9 36 -24 55 -33 19 -9 52 -33 73 -55 l39 -39 -34 -13 c-18 -7
-51 -15 -73 -17 -22 -3 -42 -8 -45 -12 -3 -4 -25 -8 -50 -10 -24 -1 -49 -6
-55 -10 -5 -5 -28 -11 -50 -15 -22 -3 -56 -9 -75 -12 -49 -8 -100 -32 -100
-48 0 -7 -9 -31 -20 -54 -11 -22 -20 -48 -20 -56 0 -8 -4 -18 -10 -21 -6 -3
-10 -16 -10 -29 0 -12 -4 -26 -9 -32 -5 -5 -18 -38 -30 -74 -12 -36 -26 -73
-31 -82 -6 -10 -10 -25 -10 -33 0 -21 -19 -54 -54 -92 -27 -30 -28 -34 -13
-45 21 -16 107 -184 107 -210 0 -10 5 -18 10 -18 6 0 10 -6 10 -12 0 -17 141
-299 157 -316 7 -7 13 -18 13 -24 0 -6 19 -49 42 -97 23 -47 43 -92 44 -99 2
-8 10 -30 20 -50 10 -20 19 -43 20 -50 6 -36 14 -45 29 -32 8 7 15 18 15 26 0
7 16 29 35 49 42 42 71 44 159 14 82 -27 139 -56 208 -103 71 -47 78 -56 83
-97 4 -27 -2 -38 -34 -70 -21 -22 -35 -39 -31 -39 13 0 79 67 73 74 -4 3 -1 6
5 6 6 0 13 9 17 20 3 10 18 25 33 33 15 8 56 30 92 48 36 19 70 39 77 45 7 7
47 29 90 50 43 21 80 41 83 45 8 11 223 117 253 124 15 4 27 11 27 15 0 13 38
18 51 6 7 -6 -3 9 -22 34 -40 52 -59 87 -59 108 0 21 36 127 63 182 54 113
164 250 201 250 21 0 26 25 10 55 -8 15 -14 33 -14 40 0 7 -13 39 -30 70 -16
31 -30 63 -30 70 0 7 -13 38 -29 68 -16 30 -34 72 -41 93 -7 22 -21 54 -32 72
-10 18 -18 41 -18 52 0 11 -4 20 -10 20 -5 0 -10 19 -10 42 0 41 -58 179 -81
194 -15 9 -11 -6 18 -64 22 -44 24 -58 15 -73 -7 -10 -12 -32 -12 -49 0 -35
-23 -49 -51 -32 -10 7 -25 12 -32 12 -7 0 -32 9 -55 20 -22 11 -45 20 -50 20
-23 0 -262 127 -304 162 -46 37 -72 47 -82 29 -8 -12 -66 -20 -66 -9 0 4 -7 8
-17 8 -15 0 -15 -1 0 -18 10 -10 17 -24 17 -30 0 -7 4 -12 10 -12 5 0 19 -17
30 -37 69 -126 97 -183 91 -187 -4 -3 -27 -6 -52 -7 -24 -1 -49 -6 -55 -11
-22 -16 -39 3 -77 82 -21 44 -43 85 -50 92 -7 7 -20 30 -31 50 -46 90 -155
195 -254 244 -84 42 -122 52 -237 65 -96 10 -98 10 -155 3 -33 -4 -50 -1 -65
11 -14 12 -16 18 -7 21 12 6 7 24 -7 24 -4 0 -16 -9 -25 -19z m1104 -664 c0
-7 9 -23 20 -35 25 -26 25 -39 3 -45 -13 -3 -9 -6 12 -12 70 -19 181 -122 221
-206 39 -81 44 -100 44 -169 0 -57 -5 -79 -32 -132 -30 -61 -150 -198 -174
-198 -6 0 -19 -9 -29 -20 -10 -11 -24 -20 -30 -20 -7 0 -18 -7 -25 -15 -16
-19 -68 -45 -91 -45 -10 0 -21 -4 -24 -10 -3 -5 -17 -10 -30 -10 -13 0 -27 -4
-30 -10 -3 -5 -33 -10 -65 -10 -32 0 -62 5 -65 10 -3 6 -15 10 -27 10 -22 0
-81 44 -71 54 4 3 14 6 23 6 10 0 23 7 31 16 9 11 22 14 41 10 17 -3 27 -2 23
4 -3 5 -42 9 -87 9 -45 0 -85 4 -91 10 -6 6 -20 11 -32 11 -27 0 -139 108
-165 159 -26 52 -50 121 -50 147 0 11 6 28 13 37 11 16 17 11 57 -44 24 -34
64 -79 89 -100 41 -37 48 -39 107 -39 55 0 64 3 64 18 0 13 14 22 48 31 52 15
86 42 108 83 21 40 18 153 -6 218 -38 103 -20 218 38 249 29 15 103 39 137 44
17 2 33 5 38 6 4 0 7 -5 7 -12z"/>
<path d="M1290 970 c0 -5 9 -10 20 -10 11 0 20 5 20 10 0 6 -9 10 -20 10 -11
0 -20 -4 -20 -10z"/>
<path d="M490 2450 c0 -5 5 -10 10 -10 6 0 10 5 10 10 0 6 -4 10 -10 10 -5 0
-10 -4 -10 -10z"/>
<path d="M1205 2270 c33 -33 62 -60 64 -60 3 0 -21 27 -54 60 -33 33 -62 60
-64 60 -3 0 21 -27 54 -60z"/>
<path d="M1280 2190 c0 -5 5 -10 11 -10 5 0 7 5 4 10 -3 6 -8 10 -11 10 -2 0
-4 -4 -4 -10z"/>
<path d="M310 1470 c0 -5 5 -10 10 -10 6 0 10 5 10 10 0 6 -4 10 -10 10 -5 0
-10 -4 -10 -10z"/>
<path d="M2380 1120 c0 -5 5 -10 10 -10 6 0 10 -32 10 -75 0 -60 -4 -79 -18
-92 -25 -24 -59 -43 -76 -43 -8 0 -40 -13 -71 -30 -31 -16 -63 -30 -70 -30
-18 0 -95 -42 -95 -52 0 -14 18 -9 24 7 3 8 16 15 28 15 13 0 34 7 48 15 34
20 72 36 91 40 9 2 39 15 68 29 28 15 51 23 51 19 0 -5 4 -3 8 2 4 6 16 15 27
21 23 12 33 80 16 97 -6 6 -11 24 -11 40 0 16 -6 35 -14 43 -17 16 -26 18 -26
4z"/>
<path d="M1179 303 c-13 -17 -13 -17 6 -3 11 8 22 16 24 17 2 2 0 3 -6 3 -6 0
-17 -8 -24 -17z"/>
<path d="M1090 229 c-25 -22 -36 -36 -25 -30 26 12 91 71 79 71 -5 0 -29 -18
-54 -41z"/>
<path d="M1000 160 l-35 -30 32 17 c18 10 35 24 38 31 6 16 5 16 -35 -18z"/>
</g>
</svg>
